<svg viewBox="0 0 15 15" xmlns:xlink="http://www.w3.org/1999/xlink" xmlns="http://www.w3.org/2000/svg" width="15" height="15" fill="none"><path fill-rule="evenodd" clip-rule="evenodd" d="M6.359 12.088c2.36-.115 4.787.139 5.419.568.632.427-.768.868-3.13.983-2.36.115-4.785-.14-5.417-.568-.632-.43.768-.869 3.128-.983Z" fill="#FFCA59"/><path d="m11.972 12.019.728-7.913-5.163 4.232 4.435 3.68Z" fill="url(#a)"/><path d="M3.028 12.019 2.3 4.106l5.163 4.232-4.435 3.68Z" fill="url(#b)"/><path d="m3.043 12.005 2.265-5.436L7.5 8.337l-4.458 3.668Z" fill="url(#c)"/><path d="M11.959 12.005 9.694 6.569 7.501 8.337l4.458 3.668Z" fill="url(#d)"/><path d="m5.31 6.571 2.196-5.237 2.186 5.24-2.193 1.765L5.311 6.57Z" fill="url(#e)"/><defs><linearGradient id="a" x1="12.696" y1="4.148" x2="9.783" y2="10.237" gradientUnits="userSpaceOnUse"><stop stop-color="#FFCA59"/><stop offset="1" stop-color="#5F3C07"/></linearGradient><linearGradient id="b" x1="2.304" y1="4.148" x2="5.217" y2="10.237" gradientUnits="userSpaceOnUse"><stop stop-color="#FFCA59"/><stop offset="1" stop-color="#5F3C07"/></linearGradient><linearGradient id="c" x1="6.717" y1="7.147" x2="5.507" y2="10.778" gradientUnits="userSpaceOnUse"><stop stop-color="#FFCA59"/><stop offset="1" stop-color="#5F3C07"/></linearGradient><linearGradient id="d" x1="8.285" y1="7.147" x2="9.495" y2="10.778" gradientUnits="userSpaceOnUse"><stop stop-color="#FFCA59"/><stop offset="1" stop-color="#5F3C07"/></linearGradient><linearGradient id="e" x1="9.688" y1="1.37" x2="7.041" y2="6.674" gradientUnits="userSpaceOnUse"><stop offset=".05" stop-color="#FFCA59"/><stop offset="1" stop-color="#5F3C06"/></linearGradient></defs></svg>