<svg xmlns:xlink="http://www.w3.org/1999/xlink" xmlns="http://www.w3.org/2000/svg" width="161" height="34" viewBox="0 0 161 34" fill="none">
<path d="M32.5593 19.3017C32.5593 18.2642 32.7543 17.2852 33.1522 16.3647C33.5461 15.4443 34.0882 14.6408 34.7708 13.9583C35.4533 13.2757 36.2568 12.7336 37.1773 12.3396C38.0977 11.9418 39.0767 11.7429 40.1142 11.7429C41.3389 11.7429 42.4075 11.9613 43.3319 12.3943C44.2524 12.8233 45.0168 13.3966 45.6292 14.1104C46.2415 14.8202 46.7018 15.6276 47.0099 16.5285C47.3219 17.4256 47.474 18.35 47.474 19.3017C47.474 20.2494 47.3219 21.1777 47.0099 22.0748C46.7018 22.9757 46.2415 23.7792 45.6292 24.4929C45.0168 25.2067 44.2524 25.7761 43.3319 26.209C42.4075 26.642 41.3389 26.8565 40.1142 26.8565C39.0767 26.8565 38.0977 26.6576 37.1773 26.2637C36.2568 25.8697 35.4533 25.3276 34.7708 24.645C34.0882 23.9586 33.5461 23.159 33.1522 22.2386C32.7543 21.3181 32.5593 20.3391 32.5593 19.3017ZM35.4923 19.2782C35.4923 19.914 35.6132 20.5068 35.8512 21.0607C36.0891 21.6145 36.4128 22.1021 36.834 22.5194C37.2514 22.9367 37.735 23.2643 38.2888 23.5101C38.8427 23.7558 39.4433 23.8767 40.0908 23.8767C40.7265 23.8767 41.3194 23.7558 41.8732 23.5101C42.427 23.2643 42.9146 22.9367 43.3319 22.5194C43.7492 22.1021 44.0769 21.6145 44.3109 21.0607C44.5488 20.5068 44.6697 19.914 44.6697 19.2782C44.6697 18.6464 44.5488 18.0535 44.3109 17.4997C44.0769 16.9459 43.7492 16.4583 43.3319 16.041C42.9146 15.6237 42.427 15.2922 41.8732 15.0464C41.3194 14.8046 40.7265 14.6798 40.0908 14.6798C39.4433 14.6798 38.8427 14.8046 38.2888 15.0464C37.735 15.2922 37.2514 15.6237 36.834 16.041C36.4128 16.4583 36.0891 16.9459 35.8512 17.4997C35.6132 18.0535 35.4923 18.6464 35.4923 19.2782ZM60.0446 15.9747C59.6 15.4872 59.0735 15.1127 58.4689 14.8553C57.8644 14.594 57.1662 14.4653 56.3745 14.4653C55.3955 14.4653 54.6349 14.5901 54.085 14.8436C53.539 15.0971 53.2659 15.4131 53.2659 15.8031C53.2659 16.0488 53.3751 16.2672 53.5897 16.4622C53.8081 16.6573 54.0889 16.8328 54.4438 16.9927C54.7948 17.1487 55.1927 17.2891 55.6295 17.41C56.0702 17.5348 56.5032 17.6518 56.9361 17.7688C57.6148 17.9404 58.3012 18.1433 58.9994 18.3734C59.6975 18.6035 60.3254 18.896 60.8871 19.2471C61.4487 19.5981 61.909 20.031 62.2678 20.5419C62.6305 21.0529 62.8099 21.6769 62.8099 22.4102C62.8099 23.159 62.6383 23.8182 62.3029 24.3837C61.9636 24.9532 61.4955 25.429 60.8988 25.8112C60.3021 26.1895 59.6 26.4782 58.7926 26.6732C57.9892 26.8682 57.1116 26.9657 56.1599 26.9657C54.8338 26.9657 53.5858 26.72 52.4157 26.2324C51.2417 25.741 50.0911 24.9727 48.9717 23.9196L51.6044 22.0007C52.2519 22.6637 52.9461 23.1785 53.6872 23.553C54.4282 23.9274 55.2746 24.1146 56.2224 24.1146C57.2754 24.1146 58.1218 23.9586 58.7614 23.6505C59.4011 23.3423 59.7209 22.9562 59.7209 22.496C59.7209 22.2503 59.6117 22.0357 59.3972 21.8485C59.1827 21.6613 58.9018 21.4936 58.5547 21.3415C58.2115 21.1894 57.8215 21.0529 57.3885 20.932C56.9595 20.8072 56.5188 20.6901 56.0741 20.577C55.3838 20.4015 54.6895 20.2065 53.9914 19.992C53.2932 19.7775 52.6614 19.5006 52.0997 19.1729C51.5381 18.8414 51.0818 18.428 50.7308 17.9288C50.3758 17.4334 50.2003 16.8055 50.2003 16.041C50.2003 15.4794 50.3173 14.9333 50.5474 14.399C50.7776 13.8686 51.1403 13.3966 51.6356 12.9871C52.1349 12.5776 52.7706 12.246 53.5468 11.9925C54.3229 11.7429 55.2512 11.6142 56.3316 11.6142C57.5992 11.6142 58.7731 11.8521 59.8496 12.328C60.93 12.8038 62.0182 13.5604 63.1103 14.594L60.4776 16.4935L60.0446 15.9747ZM78.0132 24.1146C77.2059 25.0078 76.3205 25.6864 75.3571 26.1544C74.3938 26.6225 73.329 26.8565 72.1628 26.8565C71.1253 26.8565 70.1464 26.6576 69.2259 26.2637C68.3054 25.8697 67.502 25.3276 66.8194 24.645C66.133 23.9586 65.5947 23.159 65.2008 22.2386C64.803 21.3181 64.6041 20.3391 64.6041 19.3017C64.6041 18.2642 64.803 17.2852 65.2008 16.3647C65.5947 15.4443 66.133 14.6408 66.8194 13.9583C67.502 13.2757 68.3054 12.7336 69.2259 12.3396C70.1464 11.9418 71.1253 11.7429 72.1628 11.7429C73.3407 11.7429 74.4328 11.9886 75.4313 12.48C76.4336 12.9676 77.3346 13.6462 78.1419 14.5082L75.9188 16.474C75.3142 15.8694 74.6902 15.417 74.0505 15.1244C73.4109 14.828 72.7674 14.6798 72.1199 14.6798C71.4842 14.6798 70.8874 14.8046 70.3258 15.0464C69.7641 15.2922 69.2766 15.6237 68.8593 16.041C68.4419 16.4583 68.1143 16.9459 67.8764 17.4997C67.6385 18.0535 67.5215 18.6464 67.5215 19.2782C67.5215 19.914 67.6385 20.5068 67.8764 21.0607C68.1143 21.6145 68.4419 22.1021 68.8593 22.5194C69.2766 22.9367 69.7641 23.2643 70.3258 23.5101C70.8874 23.7558 71.4842 23.8767 72.1199 23.8767C72.7518 23.8767 73.4109 23.6973 74.0935 23.3384C74.7799 22.9796 75.4274 22.4687 76.0475 21.8056L78.0132 24.1146ZM79.6358 26.8565L87.4519 11.3763L95.2447 26.8565H91.9841L90.0222 22.7339H84.8192C84.6164 23.1512 84.4214 23.553 84.2342 23.943C84.047 24.333 83.8598 24.7348 83.6726 25.1521L82.8106 26.8565H79.6358ZM87.4519 17.3164L86.2662 19.7112H88.6181L87.4519 17.3164ZM99.7651 21.049V26.8565H96.7424V11.7429H104.621C105.397 11.7429 106.123 11.8443 106.79 12.0354C107.46 12.2304 108.042 12.523 108.529 12.913C109.017 13.2991 109.403 13.7867 109.684 14.3678C109.964 14.9528 110.105 15.6315 110.105 16.4076C110.105 17.5309 109.84 18.4397 109.305 19.1378C108.775 19.836 108.053 20.343 107.148 20.6629L110.429 26.8565H107.105L103.974 21.049H99.7651ZM107.082 16.4076C107.082 16.0917 107.016 15.8187 106.879 15.5886C106.739 15.3585 106.556 15.1673 106.325 15.0152C106.095 14.8631 105.822 14.75 105.506 14.672C105.19 14.5901 104.851 14.5511 104.492 14.5511H99.7651V18.0263H104.492C105.311 18.0263 105.951 17.9209 106.403 17.7025C106.856 17.488 107.082 17.0551 107.082 16.4076ZM122.999 15.9747C122.554 15.4872 122.028 15.1127 121.423 14.8553C120.819 14.594 120.121 14.4653 119.329 14.4653C118.35 14.4653 117.586 14.5901 117.039 14.8436C116.493 15.0971 116.22 15.4131 116.22 15.8031C116.22 16.0488 116.33 16.2672 116.544 16.4622C116.759 16.6573 117.043 16.8328 117.398 16.9927C117.749 17.1487 118.143 17.2891 118.584 17.41C119.025 17.5348 119.458 17.6518 119.891 17.7688C120.565 17.9404 121.252 18.1433 121.954 18.3734C122.648 18.6035 123.28 18.896 123.842 19.2471C124.403 19.5981 124.863 20.031 125.222 20.5419C125.581 21.0529 125.761 21.6769 125.761 22.4102C125.761 23.159 125.593 23.8182 125.253 24.3837C124.918 24.9532 124.45 25.429 123.853 25.8112C123.253 26.1895 122.554 26.4782 121.747 26.6732C120.94 26.8682 120.062 26.9657 119.114 26.9657C117.788 26.9657 116.54 26.72 115.366 26.2324C114.196 25.741 113.046 24.9727 111.922 23.9196L114.559 22.0007C115.206 22.6637 115.901 23.1785 116.642 23.553C117.383 23.9274 118.229 24.1146 119.177 24.1146C120.23 24.1146 121.072 23.9586 121.716 23.6505C122.356 23.3423 122.675 22.9562 122.675 22.496C122.675 22.2503 122.566 22.0357 122.352 21.8485C122.133 21.6613 121.856 21.4936 121.509 21.3415C121.162 21.1894 120.776 21.0529 120.343 20.932C119.91 20.8072 119.473 20.6901 119.025 20.577C118.334 20.4015 117.64 20.2065 116.942 19.992C116.244 19.7775 115.616 19.5006 115.054 19.1729C114.493 18.8414 114.036 18.428 113.681 17.9288C113.33 17.4334 113.155 16.8055 113.155 16.041C113.155 15.4794 113.268 14.9333 113.498 14.399C113.728 13.8686 114.095 13.3966 114.59 12.9871C115.085 12.5776 115.721 12.246 116.501 11.9925C117.277 11.7429 118.206 11.6142 119.286 11.6142C120.554 11.6142 121.724 11.8521 122.804 12.328C123.884 12.8038 124.969 13.5604 126.065 14.594L123.432 16.4935L122.999 15.9747ZM140.921 16.4076C140.921 17.215 140.784 17.9131 140.511 18.5021C140.238 19.091 139.852 19.5747 139.357 19.9491C138.862 20.3235 138.269 20.6004 137.574 20.7799C136.884 20.9593 136.131 21.049 135.308 21.049H130.581V26.8565H127.559V11.7429H135.418C136.194 11.7429 136.923 11.8443 137.598 12.0354C138.277 12.2304 138.858 12.523 139.345 12.913C139.837 13.2991 140.223 13.7867 140.504 14.3678C140.781 14.9528 140.921 15.6315 140.921 16.4076ZM137.902 16.4076C137.902 16.0917 137.832 15.8187 137.695 15.5886C137.559 15.3585 137.376 15.1673 137.145 15.0152C136.915 14.8631 136.642 14.75 136.326 14.672C136.007 14.5901 135.671 14.5511 135.308 14.5511H130.581V18.0263H135.308C136.116 18.0263 136.748 17.9209 137.208 17.7025C137.668 17.488 137.902 17.0551 137.902 16.4076ZM142.419 26.8565V11.7429H145.441V26.8565H142.419ZM149.958 18.2447V26.8565H146.935V11.5284L157.189 20.1636V11.7429H160.169V26.9657L149.958 18.2447Z" fill="#FEFEFE"/>
<path fill-rule="evenodd" clip-rule="evenodd" d="M10.6913 28.9205C16.9088 28.622 23.303 29.2818 24.9683 30.3972C26.6336 31.5088 22.9456 32.6556 16.7242 32.9541C10.5067 33.2526 4.11646 32.5928 2.45114 31.4773C0.785822 30.3619 4.47388 29.219 10.6913 28.9205Z" fill="#FFCA59"/>
<path d="M25.4786 28.7397L27.3953 8.16272L13.7938 19.167L25.4786 28.7397Z" fill="url(#paint0_linear_10035_355827)"/>
<path d="M1.91715 28.7397L0.000465393 8.16272L13.6019 19.167L1.91715 28.7397Z" fill="url(#paint1_linear_10035_355827)"/>
<path d="M1.95618 28.7044L7.92227 14.5688L13.7003 19.1672L1.95618 28.7044Z" fill="url(#paint2_linear_10035_355827)"/>
<path d="M25.4447 28.7044L19.4786 14.5688L13.7006 19.1672L25.4447 28.7044Z" fill="url(#paint3_linear_10035_355827)"/>
<path d="M7.92957 14.5742L13.7145 0.952576L19.4718 14.5805L13.6963 19.1708L7.92957 14.5742Z" fill="url(#paint4_linear_10035_355827)"/>
<defs>
<linearGradient id="paint0_linear_10035_355827" x1="27.384" y1="8.27017" x2="19.8708" y2="24.1825" gradientUnits="userSpaceOnUse">
<stop stop-color="#FFCA59"/>
<stop offset="1" stop-color="#5F3C07"/>
</linearGradient>
<linearGradient id="paint1_linear_10035_355827" x1="0.0117217" y1="8.27017" x2="7.52495" y2="24.1825" gradientUnits="userSpaceOnUse">
<stop stop-color="#FFCA59"/>
<stop offset="1" stop-color="#5F3C07"/>
</linearGradient>
<linearGradient id="paint2_linear_10035_355827" x1="11.6358" y1="16.0706" x2="8.52015" y2="25.5395" gradientUnits="userSpaceOnUse">
<stop stop-color="#FFCA59"/>
<stop offset="1" stop-color="#5F3C07"/>
</linearGradient>
<linearGradient id="paint3_linear_10035_355827" x1="15.7651" y1="16.0706" x2="18.8807" y2="25.5395" gradientUnits="userSpaceOnUse">
<stop stop-color="#FFCA59"/>
<stop offset="1" stop-color="#5F3C07"/>
</linearGradient>
<linearGradient id="paint4_linear_10035_355827" x1="13.7007" y1="0.952576" x2="13.7007" y2="19.1708" gradientUnits="userSpaceOnUse">
<stop offset="0.05" stop-color="#FFCA59"/>
<stop offset="1" stop-color="#5F3C07"/>
</linearGradient>
</defs>
</svg>