<svg xmlns:xlink="http://www.w3.org/1999/xlink" xmlns="http://www.w3.org/2000/svg" width="94" height="24" viewBox="0 0 94 24" fill="none">
<path fill-rule="evenodd" clip-rule="evenodd" d="M24.1755 3.56352C23.8881 4.22105 23.7472 4.92039 23.7472 5.66152C23.7472 6.40264 23.8881 7.10196 24.1755 7.7595C24.46 8.41704 24.8517 8.9882 25.3447 9.47857C25.8378 9.96615 26.4182 10.3534 27.0832 10.6348C27.7481 10.9162 28.4553 11.0583 29.2048 11.0583C30.0895 11.0583 30.8615 10.9051 31.5293 10.5958C32.1942 10.2866 32.7465 9.87979 33.1888 9.36992C33.6312 8.86005 33.9637 8.28609 34.1863 7.64249C34.4117 7.00167 34.5216 6.33856 34.5216 5.66152C34.5216 4.98169 34.4117 4.32135 34.1863 3.68053C33.9637 3.03692 33.6312 2.46018 33.1888 1.9531C32.7465 1.44323 32.1942 1.03367 31.5293 0.727189C30.8615 0.417923 30.0895 0.261901 29.2048 0.261901C28.4553 0.261901 27.7481 0.403988 27.0832 0.688178C26.4182 0.969582 25.8378 1.35687 25.3447 1.84445C24.8517 2.33203 24.46 2.90598 24.1755 3.56352ZM26.1252 6.91807C25.9533 6.52243 25.866 6.09893 25.866 5.64478C25.866 5.19342 25.9533 4.76992 26.1252 4.37429C26.2971 3.97865 26.5309 3.63038 26.8352 3.33226C27.1367 3.03414 27.4861 2.79732 27.8862 2.62179C28.2863 2.44904 28.7202 2.35989 29.1879 2.35989C29.6472 2.35989 30.0754 2.44904 30.4755 2.62179C30.8756 2.79732 31.2278 3.03414 31.5293 3.33226C31.8308 3.63038 32.0675 3.97865 32.2365 4.37429C32.4084 4.76992 32.4957 5.19342 32.4957 5.64478C32.4957 6.09893 32.4084 6.52243 32.2365 6.91807C32.0675 7.31371 31.8308 7.66199 31.5293 7.96011C31.2278 8.25823 30.8756 8.49227 30.4755 8.6678C30.0754 8.84333 29.6472 8.9297 29.1879 8.9297C28.7202 8.9297 28.2863 8.84333 27.8862 8.6678C27.4861 8.49227 27.1367 8.25823 26.8352 7.96011C26.5309 7.66199 26.2971 7.31371 26.1252 6.91807Z" fill="#FEFEFE"/>
<path d="M42.4643 2.48527C42.901 2.66915 43.2814 2.93663 43.6026 3.2849L43.9153 3.65546L45.8172 2.2986C45.0282 1.56026 44.2421 1.01974 43.4617 0.679828C42.684 0.339914 41.8359 0.169953 40.9202 0.169953C40.1398 0.169953 39.4692 0.261889 38.9085 0.440204C38.3478 0.621306 37.8885 0.858144 37.5279 1.15069C37.1701 1.44324 36.908 1.78037 36.7418 2.15929C36.5756 2.54099 36.491 2.93105 36.491 3.33226C36.491 3.87835 36.6178 4.32693 36.8742 4.68078C37.1278 5.03741 37.4574 5.33274 37.8632 5.56957C38.2689 5.80361 38.7254 6.00142 39.2297 6.15466C39.734 6.3079 40.2356 6.44721 40.7343 6.57259C41.0555 6.65338 41.3739 6.73698 41.6838 6.82614C41.9965 6.91251 42.2783 7.01002 42.5262 7.11868C42.777 7.22734 42.9799 7.34715 43.1348 7.48088C43.2898 7.61462 43.3687 7.76785 43.3687 7.94338C43.3687 8.27215 43.1377 8.54799 42.6756 8.7681C42.2135 8.9882 41.6021 9.09965 40.8413 9.09965C40.1567 9.09965 39.5453 8.96591 39.0099 8.69844C38.4746 8.43097 37.9731 8.0632 37.5054 7.58955L35.6035 8.96034C36.4121 9.71261 37.2433 10.2615 38.0914 10.6125C38.9367 10.9608 39.8383 11.1363 40.7963 11.1363C41.4837 11.1363 42.1177 11.0667 42.6981 10.9274C43.2814 10.7881 43.7885 10.5819 44.2196 10.3116C44.6507 10.0386 44.9888 9.69868 45.2339 9.2919C45.4762 8.8879 45.6002 8.41704 45.6002 7.88209C45.6002 7.35829 45.4706 6.91251 45.2086 6.54752C44.9494 6.18253 44.6169 5.87326 44.2111 5.62251C43.8054 5.37175 43.3518 5.16279 42.8474 4.9984C42.3431 4.83402 41.8472 4.68913 41.357 4.56653L41.3559 4.56624C41.0435 4.48276 40.7311 4.39926 40.4131 4.31021C40.0975 4.22384 39.8101 4.12353 39.5565 4.01209C39.3001 3.89785 39.0973 3.77248 38.9395 3.63317C38.7845 3.49386 38.7056 3.33784 38.7056 3.16231C38.7056 2.88369 38.9029 2.658 39.2973 2.4769C39.6946 2.2958 40.244 2.20665 40.9512 2.20665C41.5232 2.20665 42.0275 2.29859 42.4643 2.48527Z" fill="#FEFEFE"/>
<path d="M54.6643 10.5568C55.3602 10.2225 55.9998 9.73769 56.5831 9.09965L55.163 7.45024C54.715 7.92389 54.2473 8.28888 53.7514 8.54521C53.2583 8.80153 52.7822 8.9297 52.3257 8.9297C51.8665 8.9297 51.4354 8.84333 51.0297 8.6678C50.6239 8.49227 50.2717 8.25823 49.9702 7.96011C49.6688 7.66199 49.4321 7.31371 49.2602 6.91807C49.0884 6.52243 49.0038 6.09893 49.0038 5.64478C49.0038 5.19342 49.0884 4.76992 49.2602 4.37429C49.4321 3.97865 49.6688 3.63038 49.9702 3.33226C50.2717 3.03414 50.6239 2.79732 51.0297 2.62179C51.4354 2.44904 51.8665 2.35989 52.3257 2.35989C52.7934 2.35989 53.2583 2.46576 53.7204 2.67751C54.1825 2.88648 54.6333 3.20968 55.07 3.64154L56.676 2.23729C56.0928 1.62155 55.442 1.13675 54.7178 0.788476C53.9965 0.437418 53.2076 0.261901 52.3567 0.261901C51.6073 0.261901 50.9 0.403988 50.2351 0.688178C49.5702 0.969582 48.9897 1.35687 48.4967 1.84445C48.0008 2.33203 47.6119 2.90598 47.3274 3.56352C47.04 4.22105 46.8963 4.92039 46.8963 5.66152C46.8963 6.40264 47.04 7.10196 47.3274 7.7595C47.6119 8.41704 48.0008 8.9882 48.4967 9.47857C48.9897 9.96615 49.5702 10.3534 50.2351 10.6348C50.9 10.9162 51.6073 11.0583 52.3567 11.0583C53.1992 11.0583 53.9684 10.8912 54.6643 10.5568Z" fill="#FEFEFE"/>
<path fill-rule="evenodd" clip-rule="evenodd" d="M63.4016 0L57.7552 11.0583H60.0487L60.6714 9.84078C60.8066 9.54266 60.9418 9.25568 61.0771 8.97706C61.2123 8.69844 61.3532 8.41147 61.4997 8.11335H65.2583L66.6756 11.0583H69.0311L63.4016 0ZM62.545 5.95406L63.4016 4.24334L64.244 5.95406H62.545Z" fill="#FEFEFE"/>
<path fill-rule="evenodd" clip-rule="evenodd" d="M72.2966 11.0583V6.90972H75.3368L77.5993 11.0583H79.9998L77.6303 6.63389C78.2839 6.40542 78.8052 6.04321 79.1884 5.54449C79.5744 5.04576 79.766 4.39658 79.766 3.59416C79.766 3.03971 79.6645 2.55492 79.4617 2.13699C79.2588 1.72185 78.9799 1.37359 78.6277 1.09776C78.2755 0.819137 77.8557 0.610174 77.371 0.470865C76.8892 0.334342 76.3652 0.261901 75.8045 0.261901H70.113V11.0583H72.2966ZM77.4359 3.00907C77.5345 3.17345 77.5824 3.36848 77.5824 3.59416C77.5824 4.05667 77.4189 4.36593 77.0921 4.51917C76.7653 4.6752 76.3032 4.75043 75.7115 4.75043H72.2966V2.26794H75.7115C75.9707 2.26794 76.2158 2.2958 76.4441 2.35431C76.6723 2.41003 76.8695 2.49083 77.0358 2.59949C77.202 2.70815 77.3344 2.84468 77.4359 3.00907Z" fill="#FEFEFE"/>
<path d="M30.6108 15.3488C31.0475 15.5327 31.4279 15.8002 31.7491 16.1484L32.0618 16.519L33.9637 15.1621C33.1719 14.4238 32.3887 13.8833 31.6082 13.5434C30.8277 13.2035 29.9825 13.0335 29.0668 13.0335C28.2863 13.0335 27.6157 13.1254 27.055 13.3037C26.4915 13.4848 26.0322 13.7217 25.6744 14.0142C25.3166 14.3068 25.0517 14.6439 24.8855 15.0228C24.7193 15.4045 24.6375 15.7946 24.6375 16.1958C24.6375 16.7419 24.7643 17.1905 25.0179 17.5443C25.2743 17.9009 25.604 18.1963 26.0097 18.4331C26.4154 18.6671 26.869 18.865 27.3734 19.0182C27.8777 19.1714 28.3793 19.3107 28.878 19.4361C29.202 19.5169 29.5176 19.6005 29.8303 19.6897C30.1431 19.776 30.422 19.8736 30.6728 19.9822C30.9235 20.0909 31.1236 20.2107 31.2814 20.3444C31.4363 20.4782 31.5152 20.6314 31.5152 20.8069C31.5152 21.1357 31.2842 21.4115 30.8221 21.6316C30.3572 21.8517 29.7486 21.9632 28.9879 21.9632C28.3032 21.9632 27.6918 21.8294 27.1564 21.562C26.6211 21.2945 26.1196 20.9267 25.6519 20.4531L23.7472 21.8239C24.5587 22.5761 25.3898 23.125 26.2351 23.4761C27.0832 23.8244 27.9848 23.9999 28.9428 23.9999C29.6274 23.9999 30.2614 23.9302 30.8446 23.7909C31.4279 23.6516 31.9322 23.4454 32.3661 23.1752C32.7972 22.9021 33.1353 22.5622 33.3776 22.1554C33.6227 21.7514 33.7439 21.2806 33.7439 20.7456C33.7439 20.2218 33.6143 19.776 33.3551 19.4111C33.0959 19.0461 32.7634 18.7368 32.3577 18.486C31.9519 18.2353 31.4955 18.0263 30.994 17.8619C30.4868 17.6976 29.9909 17.5527 29.5035 17.4301L29.5019 17.4296C29.1897 17.3462 28.8774 17.2628 28.5596 17.1737C28.2412 17.0874 27.9566 16.9871 27.7031 16.8756C27.4467 16.7614 27.241 16.636 27.086 16.4967C26.931 16.3574 26.8521 16.2014 26.8521 16.0258C26.8521 15.7472 27.0494 15.5215 27.4438 15.3404C27.8383 15.1593 28.3905 15.0702 29.0977 15.0702C29.6697 15.0702 30.1741 15.1621 30.6108 15.3488Z" fill="#FEFEFE"/>
<path fill-rule="evenodd" clip-rule="evenodd" d="M44.3999 17.9539C44.5972 17.5332 44.6958 17.0344 44.6958 16.4577C44.6958 15.9032 44.5943 15.4185 44.3943 15.0005C44.1914 14.5854 43.9125 14.2371 43.5575 13.9613C43.2053 13.6827 42.7855 13.4737 42.2952 13.3344C41.8078 13.1979 41.2809 13.1254 40.7202 13.1254H35.0428V23.9219H37.2264V19.7733H40.6413C41.2358 19.7733 41.7796 19.7092 42.2783 19.581C42.7798 19.4528 43.2081 19.255 43.5659 18.9876C43.9238 18.7201 44.2027 18.3746 44.3999 17.9539ZM42.3657 15.8726C42.4643 16.037 42.515 16.232 42.515 16.4577C42.515 16.9202 42.3459 17.2295 42.0135 17.3827C41.681 17.5387 41.2245 17.614 40.6413 17.614H37.2264V15.1315H40.6413C40.9033 15.1315 41.1456 15.1593 41.3767 15.2178C41.6049 15.2736 41.8021 15.3544 41.9684 15.463C42.1346 15.5717 42.267 15.7082 42.3657 15.8726Z" fill="#FEFEFE"/>
<path d="M45.7777 13.1254V23.9219H47.9613V13.1254H45.7777Z" fill="#FEFEFE"/>
<path d="M51.2241 23.9219V17.77L58.6004 23.9999V13.1254H56.4478V19.1408L49.0405 12.9722V23.9219H51.2241Z" fill="#FEFEFE"/>
<path fill-rule="evenodd" clip-rule="evenodd" d="M8.09016 20.928C12.795 20.7046 17.6335 21.1983 18.8937 22.033C20.1539 22.8647 17.3631 23.7229 12.6553 23.9463C7.95047 24.1697 3.11488 23.6759 1.85471 22.8412C0.594547 22.0066 3.38534 21.1513 8.09016 20.928Z" fill="#FFCA59"/>
<path d="M19.2802 20.7925L20.7306 5.39514L10.4382 13.6294L19.2802 20.7925Z" fill="url(#paint0_linear_10035_355619)"/>
<path d="M1.45036 20.7925L-1.62125e-05 5.39514L10.2924 13.6294L1.45036 20.7925Z" fill="url(#paint1_linear_10035_355619)"/>
<path d="M1.48029 20.7664L5.99489 10.189L10.3672 13.6298L1.48029 20.7664Z" fill="url(#paint2_linear_10035_355619)"/>
<path d="M19.2538 20.7664L14.7392 10.189L10.367 13.6298L19.2538 20.7664Z" fill="url(#paint3_linear_10035_355619)"/>
<path d="M6.00024 10.1928L10.3778 0L14.7344 10.1975L10.364 13.6324L6.00024 10.1928Z" fill="url(#paint4_linear_10035_355619)"/>
<defs>
<linearGradient id="paint0_linear_10035_355619" x1="20.7221" y1="5.47555" x2="15.1402" y2="17.4307" gradientUnits="userSpaceOnUse">
<stop stop-color="#FFCA59"/>
<stop offset="1" stop-color="#5F3C06"/>
</linearGradient>
<linearGradient id="paint1_linear_10035_355619" x1="0.00850226" y1="5.47555" x2="5.59044" y2="17.4307" gradientUnits="userSpaceOnUse">
<stop stop-color="#FFCA59"/>
<stop offset="1" stop-color="#5F3C06"/>
</linearGradient>
<linearGradient id="paint2_linear_10035_355619" x1="8.80497" y1="11.3127" x2="6.49454" y2="18.4134" gradientUnits="userSpaceOnUse">
<stop stop-color="#FFCA59"/>
<stop offset="1" stop-color="#5F3C06"/>
</linearGradient>
<linearGradient id="paint3_linear_10035_355619" x1="11.9292" y1="11.3127" x2="14.2396" y2="18.4134" gradientUnits="userSpaceOnUse">
<stop stop-color="#FFCA59"/>
<stop offset="1" stop-color="#5F3C06"/>
</linearGradient>
<linearGradient id="paint4_linear_10035_355619" x1="10.3673" y1="0" x2="10.3673" y2="13.6324" gradientUnits="userSpaceOnUse">
<stop offset="0.05" stop-color="#FFCA59"/>
<stop offset="1" stop-color="#5F3C06"/>
</linearGradient>
</defs>
</svg>